<?xml version="1.0" encoding="UTF-8" standalone="no"?>
<svg
   width="600"
   height="530"
   version="1.1"
   id="svg1"
   sodipodi:docname="Bluesky_Logo.svg"
   inkscape:version="1.3.2 (091e20e, 2023-11-25)"
   xmlns:inkscape="http://www.inkscape.org/namespaces/inkscape"
   xmlns:sodipodi="http://sodipodi.sourceforge.net/DTD/sodipodi-0.dtd"
   xmlns="http://www.w3.org/2000/svg"
   xmlns:svg="http://www.w3.org/2000/svg">
  <defs
     id="defs1" />
  <sodipodi:namedview
     id="namedview1"
     pagecolor="#ffffff"
     bordercolor="#000000"
     borderopacity="0.25"
     inkscape:showpageshadow="2"
     inkscape:pageopacity="0.0"
     inkscape:pagecheckerboard="0"
     inkscape:deskcolor="#d1d1d1"
     inkscape:zoom="0.44528302"
     inkscape:cx="300.9322"
     inkscape:cy="265"
     inkscape:window-width="1336"
     inkscape:window-height="809"
     inkscape:window-x="0"
     inkscape:window-y="37"
     inkscape:window-maximized="0"
     inkscape:current-layer="svg1" />
  <path
     d="m135.72 44.03c66.496 49.921 138.02 151.14 164.28 205.46 26.262-54.316 97.782-155.54 164.28-205.46 47.98-36.021 125.72-63.892 125.72 24.795 0 17.712-10.155 148.79-16.111 170.07-20.703 73.984-96.144 92.854-163.25 81.433 117.3 19.964 147.14 86.092 82.697 152.22-122.39 125.59-175.91-31.511-189.63-71.766-2.514-7.3797-3.6904-10.832-3.7077-7.8964-0.0174-2.9357-1.1937 0.51669-3.7077 7.8964-13.714 40.255-67.233 197.36-189.63 71.766-64.444-66.128-34.605-132.26 82.697-152.22-67.108 11.421-142.55-7.4491-163.25-81.433-5.9562-21.282-16.111-152.36-16.111-170.07 0-88.687 77.742-60.816 125.72-24.795z"
     fill="#1185fe"
     id="path1" />
  <path
     style="fill:#0c6670;stroke-width:12.7319"
     d="M 171.49985,515.56615 C 140.07643,505.7351 94.375568,464.3814 81.271736,433.92072 c -7.174188,-16.67685 -8.323145,-29.02985 -4.063065,-43.68399 4.229276,-14.54821 18.050708,-31.21619 34.794769,-41.96082 12.15175,-7.79776 41.86642,-19.27035 59.55029,-22.99187 6.31176,-1.3283 12.99182,-3.38479 14.84458,-4.56997 2.64609,-1.6927 2.45559,-1.86591 -0.88813,-0.80757 -2.34122,0.74103 -15.98423,1.35954 -30.3178,1.37445 C 103.16597,321.33511 64.807205,304.35461 42.922261,271.58163 26.865158,247.53594 22.805184,226.11341 14.435579,121.27119 8.9979203,53.156098 11.427739,35.127003 28.007294,20.569962 c 9.821833,-8.623684 15.873117,-10.262445 32.371022,-8.766468 26.781893,2.428497 63.180514,22.133017 98.372394,53.254249 41.45902,36.663437 99.80193,111.455317 131.88101,169.063017 4.64271,8.3374 9.148,15.1589 10.01175,15.1589 0.86376,0 4.77058,-6.48947 8.68182,-14.42105 3.91125,-7.9316 16.51889,-28.40148 28.01699,-45.48864 52.39993,-77.87076 113.24369,-140.515648 158.71733,-163.415808 56.75821,-28.5829883 89.4192,-15.560012 91.89048,36.639691 0.98528,20.811901 -6.60192,119.497087 -12.02204,156.368007 -7.77014,52.85717 -37.09216,85.14605 -89.72042,98.79852 -13.92553,3.61246 -58.08899,4.89387 -70.00642,2.03127 -3.49223,-0.83886 -5.78028,-0.89802 -5.08457,-0.13147 0.69572,0.76655 11.30695,3.99757 23.58051,7.18006 29.11205,7.54866 51.48047,18.47762 67.17359,32.82023 17.80131,16.26943 22.40975,25.89602 22.41485,46.82258 0.003,14.10678 -1.05162,18.94308 -6.49403,29.76824 -9.07591,18.05236 -27.22623,39.29633 -46.58374,54.5237 -34.0848,26.81245 -63.08862,34.19497 -88.60767,22.55384 -29.53874,-13.47483 -53.02798,-45.96077 -73.81914,-102.09294 -3.94201,-10.64267 -8.07857,-18.85883 -9.19238,-18.25816 -1.11379,0.60067 -5.79773,11.09034 -10.40873,23.31037 -30.13748,79.86987 -70.60193,114.00677 -117.68005,99.27805 z"
     id="path2" />
</svg>
