<?xml version="1.0" encoding="UTF-8" standalone="no"?>
<svg
   version="1.0"
   width="240.000000pt"
   height="240.000000pt"
   viewBox="0 0 240.000000 240.000000"
   preserveAspectRatio="xMidYMid meet"
   id="svg1"
   sodipodi:docname="GitHub_logo.svg"
   inkscape:version="1.3.2 (091e20e, 2023-11-25)"
   xmlns:inkscape="http://www.inkscape.org/namespaces/inkscape"
   xmlns:sodipodi="http://sodipodi.sourceforge.net/DTD/sodipodi-0.dtd"
   xmlns="http://www.w3.org/2000/svg"
   xmlns:svg="http://www.w3.org/2000/svg">
  <defs
     id="defs1" />
  <sodipodi:namedview
     id="namedview1"
     pagecolor="#ffffff"
     bordercolor="#000000"
     borderopacity="0.25"
     inkscape:showpageshadow="2"
     inkscape:pageopacity="0.0"
     inkscape:pagecheckerboard="0"
     inkscape:deskcolor="#d1d1d1"
     inkscape:document-units="pt"
     inkscape:zoom="1.3253237"
     inkscape:cx="115.06623"
     inkscape:cy="150.52927"
     inkscape:window-width="1312"
     inkscape:window-height="734"
     inkscape:window-x="0"
     inkscape:window-y="37"
     inkscape:window-maximized="0"
     inkscape:current-layer="g1" />
  <g
     transform="translate(0.000000,240.000000) scale(0.100000,-0.100000)"
     fill="#000000"
     stroke="none"
     id="g1">
    <path
       d="M970 2301 c-305 -68 -555 -237 -727 -493 -301 -451 -241 -1056 143 -1442 115 -116 290 -228 422 -271 49 -16 55 -16 77 -1 24 16 25 20 25 135 l0 118 -88 -5 c-103 -5 -183 13 -231 54 -17 14 -50 62 -73 106 -38 74 -66 108 -144 177 -26 23 -27 24 -9 37 43 32 130 1 185 -65 96 -117 133 -148 188 -160 49 -10 94 -6 162 14 9 3 21 24 27 48 6 23 22 58 35 77 l24 35 -81 16 c-170 35 -275 96 -344 200 -64 96 -85 179 -86 334 0 146 16 206 79 288 28 36 31 47 23 68 -15 36 -11 188 5 234 13 34 20 40 47 43 45 5 129 -24 214 -72 l73 -42 64 15 c91 21 364 20 446 0 l62 -16 58 35 c77 46 175 82 224 82 39 0 39 -1 55 -52 17 -59 20 -166 5 -217 -8 -30 -6 -39 16 -68 109 -144 121 -383 29 -579 -62 -129 -193 -219 -369 -252 l-84 -16 31 -55 32 -56 3 -223 4 -223 25 -16 c23 -15 28 -15 76 2 80 27 217 101 292 158 446 334 590 933 343 1431 -145 293 -419 518 -733 602 -137 36 -395 44 -525 15z"
       id="path1"
       style="fill:#000000;fill-opacity:1" />
    <path
       style="fill:#0c6670;fill-opacity:1;stroke-width:4.27767"
       d="m 202.50629,307.09658 -3.06574,-1.82819 -0.49923,-20.52493 c -0.27457,-11.28871 -0.49923,-24.69582 -0.49923,-29.79358 v -9.26865 l -2.74238,-4.75625 c -1.50831,-2.61594 -3.3784,-5.81919 -4.15575,-7.11834 l -1.41338,-2.36208 7.36252,-1.31478 c 20.65227,-3.68804 37.307,-12.445 46.57424,-24.48846 9.2289,-11.99366 14.23626,-28.57871 14.24742,-47.18946 0.01,-16.48575 -3.11164,-27.38114 -11.40405,-39.80466 l -3.40156,-5.09616 0.82617,-4.3355 c 1.95882,-10.279277 1.58856,-21.474882 -0.9969,-30.14316 -1.48192,-4.96844 -2.79169,-6.259977 -6.34836,-6.259977 -7.13624,0 -24.34251,6.581002 -34.98463,13.380815 l -3.60472,2.303248 -5.44967,-1.415654 c -13.08348,-3.398684 -48.81133,-3.488604 -64.54605,-0.162451 -6.06508,1.282095 -6.36082,1.279582 -8.67713,-0.07379 -7.93223,-4.634621 -18.26762,-9.670859 -23.280717,-11.344242 -5.696284,-1.901437 -14.26269,-2.619654 -16.172765,-1.355944 -1.638768,1.084213 -3.287961,5.391784 -4.121758,10.765731 -0.829894,5.348799 -0.554799,22.157154 0.438034,26.763954 0.417307,1.93633 -0.232666,3.34553 -4.457887,9.66514 -6.183488,9.24855 -7.888467,14.48367 -8.6939,26.69455 -1.171355,17.75849 0.851111,34.50133 5.405533,44.74934 9.114454,20.50863 25.496382,31.73745 54.55464,37.39389 3.71682,0.72351 6.85867,1.39325 6.98191,1.48832 0.12323,0.0951 -0.80466,1.69712 -2.062,3.56014 -1.25734,1.86301 -3.33079,6.12316 -4.60767,9.46698 -1.27688,3.34382 -2.74522,6.43124 -3.26297,6.86093 -1.70777,1.41733 -9.76344,3.10142 -14.83532,3.10142 -10.748668,0 -15.421542,-2.85088 -27.981363,-17.07116 -8.579029,-9.71321 -13.331325,-13.22477 -19.824683,-14.64881 -3.02129,-0.66259 -4.496368,-0.6284 -6.802369,0.15767 -5.622487,1.9166 -5.383108,2.72644 3.35266,11.34232 5.833053,5.75301 8.854996,9.45475 11.584395,14.19033 6.262242,10.86517 11.592621,18.4005 14.302463,20.21879 6.872899,4.61168 17.795921,6.61196 31.615377,5.78955 l 8.86576,-0.5276 v 14.85481 14.85481 l -2.20556,2.20555 c -2.77376,2.77377 -5.04899,2.81701 -12.27423,0.23331 C 93.103613,301.55491 74.909482,290.75599 62.039767,280.01656 27.250227,250.98565 7.5453267,208.66551 7.5453267,162.97906 7.5453267,122.1646 23.085888,85.001175 52.369732,55.786765 69.421249,38.775679 86.915041,27.606611 109.08058,19.579216 c 19.3595,-7.011174 37.64547,-9.415825 60.29903,-7.929479 19.97292,1.310462 28.98328,3.027171 42.64407,8.124808 21.49412,8.020706 39.17132,19.584928 56.21269,36.773682 17.37696,17.527254 28.823,36.023651 36.49551,58.975443 5.39975,16.15297 7.64465,30.35206 7.64465,48.35281 0,45.61639 -20.6052,88.81592 -56.27967,117.99235 -10.59307,8.66355 -27.9301,18.76505 -41.05505,23.9209 -8.44613,3.31787 -9.05647,3.3815 -12.53552,1.30685 z"
       id="path2"
       transform="matrix(7.5,0,0,-7.5,0,2400)" />
  </g>
</svg>
